<?xml version="1.0" encoding="UTF-8"?>
<svg xmlns="http://www.w3.org/2000/svg" width="297mm" height="420mm" viewBox="0 0 891 1260">
  <path d="M55.10,54.00 L55.10,1206.00" fill="none" stroke="#000000" stroke-width="1" stroke-linecap="round" stroke-linejoin="round"/>
  <path d="M62.20,54.00 L62.20,1206.00" fill="none" stroke="#000000" stroke-width="1" stroke-linecap="round" stroke-linejoin="round"/>
  <path d="M69.30,54.00 L69.30,1206.00" fill="none" stroke="#000000" stroke-width="1" stroke-linecap="round" stroke-linejoin="round"/>
  <path d="M76.39,54.00 L76.39,1206.00" fill="none" stroke="#000000" stroke-width="1" stroke-linecap="round" stroke-linejoin="round"/>
  <path d="M83.49,54.00 L83.49,1206.00" fill="none" stroke="#000000" stroke-width="1" stroke-linecap="round" stroke-linejoin="round"/>
  <path d="M90.59,54.00 L90.59,1206.00" fill="none" stroke="#000000" stroke-width="1" stroke-linecap="round" stroke-linejoin="round"/>
  <path d="M97.69,54.00 L97.69,1206.00" fill="none" stroke="#000000" stroke-width="1" stroke-linecap="round" stroke-linejoin="round"/>
  <path d="M104.79,54.00 L104.79,1206.00" fill="none" stroke="#000000" stroke-width="1" stroke-linecap="round" stroke-linejoin="round"/>
  <path d="M111.88,54.00 L111.88,1206.00" fill="none" stroke="#000000" stroke-width="1" stroke-linecap="round" stroke-linejoin="round"/>
  <path d="M118.98,54.00 L118.98,1206.00" fill="none" stroke="#000000" stroke-width="1" stroke-linecap="round" stroke-linejoin="round"/>
  <path d="M126.08,54.00 L126.08,1206.00" fill="none" stroke="#000000" stroke-width="1" stroke-linecap="round" stroke-linejoin="round"/>
  <path d="M129.93,54.00 L129.93,1206.00" fill="none" stroke="#000000" stroke-width="1" stroke-linecap="round" stroke-linejoin="round"/>
  <path d="M133.18,1206.00 L133.18,54.00" fill="none" stroke="#000000" stroke-width="1" stroke-linecap="round" stroke-linejoin="round"/>
  <path d="M136.94,1206.00 L136.94,54.00" fill="none" stroke="#000000" stroke-width="1" stroke-linecap="round" stroke-linejoin="round"/>
  <path d="M140.28,54.00 L140.28,1206.00" fill="none" stroke="#000000" stroke-width="1" stroke-linecap="round" stroke-linejoin="round"/>
  <path d="M143.95,1206.00 L143.95,54.00" fill="none" stroke="#000000" stroke-width="1" stroke-linecap="round" stroke-linejoin="round"/>
  <path d="M147.38,54.00 L147.38,1206.00" fill="none" stroke="#000000" stroke-width="1" stroke-linecap="round" stroke-linejoin="round"/>
  <path d="M241.92,830.82 L241.92,800.86" fill="none" stroke="#000000" stroke-width="1" stroke-linecap="round" stroke-linejoin="round"/>
  <path d="M242.79,1206.00 L242.79,54.00" fill="none" stroke="#000000" stroke-width="1" stroke-linecap="round" stroke-linejoin="round"/>
  <path d="M249.78,1206.00 L249.78,54.00" fill="none" stroke="#000000" stroke-width="1" stroke-linecap="round" stroke-linejoin="round"/>
  <path d="M256.77,1206.00 L256.77,54.00" fill="none" stroke="#000000" stroke-width="1" stroke-linecap="round" stroke-linejoin="round"/>
  <path d="M263.76,1206.00 L263.76,54.00" fill="none" stroke="#000000" stroke-width="1" stroke-linecap="round" stroke-linejoin="round"/>
  <path d="M270.75,1206.00 L270.75,54.00" fill="none" stroke="#000000" stroke-width="1" stroke-linecap="round" stroke-linejoin="round"/>
  <path d="M277.74,1206.00 L277.74,54.00" fill="none" stroke="#000000" stroke-width="1" stroke-linecap="round" stroke-linejoin="round"/>
  <path d="M284.73,1206.00 L284.73,54.00" fill="none" stroke="#000000" stroke-width="1" stroke-linecap="round" stroke-linejoin="round"/>
  <path d="M291.72,1206.00 L291.72,54.00" fill="none" stroke="#000000" stroke-width="1" stroke-linecap="round" stroke-linejoin="round"/>
  <path d="M298.71,1206.00 L298.71,54.00" fill="none" stroke="#000000" stroke-width="1" stroke-linecap="round" stroke-linejoin="round"/>
  <path d="M302.43,1206.00 L302.43,54.00" fill="none" stroke="#000000" stroke-width="1" stroke-linecap="round" stroke-linejoin="round"/>
  <path d="M312.69,54.00 L312.69,1206.00" fill="none" stroke="#000000" stroke-width="1" stroke-linecap="round" stroke-linejoin="round"/>
  <path d="M241.92,176.36 L241.92,216.10" fill="none" stroke="#000000" stroke-width="1" stroke-linecap="round" stroke-linejoin="round"/>
  <path d="M235.80,54.00 L235.80,1206.00" fill="none" stroke="#000000" stroke-width="1" stroke-linecap="round" stroke-linejoin="round"/>
  <path d="M235.12,1206.00 L235.12,54.00" fill="none" stroke="#000000" stroke-width="1" stroke-linecap="round" stroke-linejoin="round"/>
  <path d="M228.81,1206.00 L228.81,54.00" fill="none" stroke="#000000" stroke-width="1" stroke-linecap="round" stroke-linejoin="round"/>
  <path d="M228.10,54.00 L228.10,1206.00" fill="none" stroke="#000000" stroke-width="1" stroke-linecap="round" stroke-linejoin="round"/>
  <path d="M221.82,1206.00 L221.82,54.00" fill="none" stroke="#000000" stroke-width="1" stroke-linecap="round" stroke-linejoin="round"/>
  <path d="M221.09,54.00 L221.09,1206.00" fill="none" stroke="#000000" stroke-width="1" stroke-linecap="round" stroke-linejoin="round"/>
  <path d="M214.83,1206.00 L214.83,54.00" fill="none" stroke="#000000" stroke-width="1" stroke-linecap="round" stroke-linejoin="round"/>
  <path d="M214.08,54.00 L214.08,1206.00" fill="none" stroke="#000000" stroke-width="1" stroke-linecap="round" stroke-linejoin="round"/>
  <path d="M207.07,54.00 L207.07,1206.00" fill="none" stroke="#000000" stroke-width="1" stroke-linecap="round" stroke-linejoin="round"/>
  <path d="M200.05,54.00 L200.05,1206.00" fill="none" stroke="#000000" stroke-width="1" stroke-linecap="round" stroke-linejoin="round"/>
  <path d="M193.04,54.00 L193.04,1206.00" fill="none" stroke="#000000" stroke-width="1" stroke-linecap="round" stroke-linejoin="round"/>
  <path d="M186.03,54.00 L186.03,1206.00" fill="none" stroke="#000000" stroke-width="1" stroke-linecap="round" stroke-linejoin="round"/>
  <path d="M179.02,54.00 L179.02,1206.00" fill="none" stroke="#000000" stroke-width="1" stroke-linecap="round" stroke-linejoin="round"/>
  <path d="M172.00,54.00 L172.00,1206.00" fill="none" stroke="#000000" stroke-width="1" stroke-linecap="round" stroke-linejoin="round"/>
  <path d="M164.99,54.00 L164.99,1206.00" fill="none" stroke="#000000" stroke-width="1" stroke-linecap="round" stroke-linejoin="round"/>
  <path d="M157.98,54.00 L157.98,1206.00" fill="none" stroke="#000000" stroke-width="1" stroke-linecap="round" stroke-linejoin="round"/>
  <path d="M154.47,1206.00 L154.47,54.00" fill="none" stroke="#000000" stroke-width="1" stroke-linecap="round" stroke-linejoin="round"/>
  <path d="M150.96,1206.00 L150.96,54.00" fill="none" stroke="#000000" stroke-width="1" stroke-linecap="round" stroke-linejoin="round"/>
  <path d="M241.92,516.06 L241.92,640.34" fill="none" stroke="#000000" stroke-width="1" stroke-linecap="round" stroke-linejoin="round"/>
  <path d="M241.92,704.23 L241.92,730.66" fill="none" stroke="#000000" stroke-width="1" stroke-linecap="round" stroke-linejoin="round"/>
  <path d="M305.70,54.00 L305.70,1206.00" fill="none" stroke="#000000" stroke-width="1" stroke-linecap="round" stroke-linejoin="round"/>
  <path d="M327.31,1206.00 L327.31,54.00" fill="none" stroke="#000000" stroke-width="1" stroke-linecap="round" stroke-linejoin="round"/>
  <path d="M326.67,54.00 L326.67,1206.00" fill="none" stroke="#000000" stroke-width="1" stroke-linecap="round" stroke-linejoin="round"/>
  <path d="M389.52,1206.00 L389.52,54.00" fill="none" stroke="#000000" stroke-width="1" stroke-linecap="round" stroke-linejoin="round"/>
  <path d="M390.78,54.00 L390.78,1206.00" fill="none" stroke="#000000" stroke-width="1" stroke-linecap="round" stroke-linejoin="round"/>
  <path d="M383.30,1206.00 L383.30,54.00" fill="none" stroke="#000000" stroke-width="1" stroke-linecap="round" stroke-linejoin="round"/>
  <path d="M377.07,1206.00 L377.07,54.00" fill="none" stroke="#000000" stroke-width="1" stroke-linecap="round" stroke-linejoin="round"/>
  <path d="M370.85,1206.00 L370.85,54.00" fill="none" stroke="#000000" stroke-width="1" stroke-linecap="round" stroke-linejoin="round"/>
  <path d="M364.63,1206.00 L364.63,54.00" fill="none" stroke="#000000" stroke-width="1" stroke-linecap="round" stroke-linejoin="round"/>
  <path d="M358.41,1206.00 L358.41,54.00" fill="none" stroke="#000000" stroke-width="1" stroke-linecap="round" stroke-linejoin="round"/>
  <path d="M352.19,1206.00 L352.19,54.00" fill="none" stroke="#000000" stroke-width="1" stroke-linecap="round" stroke-linejoin="round"/>
  <path d="M345.97,1206.00 L345.97,54.00" fill="none" stroke="#000000" stroke-width="1" stroke-linecap="round" stroke-linejoin="round"/>
  <path d="M339.75,1206.00 L339.75,54.00" fill="none" stroke="#000000" stroke-width="1" stroke-linecap="round" stroke-linejoin="round"/>
  <path d="M333.53,1206.00 L333.53,54.00" fill="none" stroke="#000000" stroke-width="1" stroke-linecap="round" stroke-linejoin="round"/>
  <path d="M321.09,54.00 L321.09,1206.00" fill="none" stroke="#000000" stroke-width="1" stroke-linecap="round" stroke-linejoin="round"/>
  <path d="M319.68,1206.00 L319.68,54.00" fill="none" stroke="#000000" stroke-width="1" stroke-linecap="round" stroke-linejoin="round"/>
  <path d="M314.87,54.00 L314.87,1206.00" fill="none" stroke="#000000" stroke-width="1" stroke-linecap="round" stroke-linejoin="round"/>
  <path d="M308.65,54.00 L308.65,1206.00" fill="none" stroke="#000000" stroke-width="1" stroke-linecap="round" stroke-linejoin="round"/>
  <path d="M404.46,54.00 L404.46,1206.00" fill="none" stroke="#000000" stroke-width="1" stroke-linecap="round" stroke-linejoin="round"/>
  <path d="M411.30,1206.00 L411.30,54.00" fill="none" stroke="#000000" stroke-width="1" stroke-linecap="round" stroke-linejoin="round"/>
  <path d="M475.78,1206.00 L475.78,54.00" fill="none" stroke="#000000" stroke-width="1" stroke-linecap="round" stroke-linejoin="round"/>
  <path d="M500.22,1206.00 L500.22,54.00" fill="none" stroke="#000000" stroke-width="1" stroke-linecap="round" stroke-linejoin="round"/>
  <path d="M498.50,54.00 L498.50,1206.00" fill="none" stroke="#000000" stroke-width="1" stroke-linecap="round" stroke-linejoin="round"/>
  <path d="M506.07,1206.00 L506.07,54.00" fill="none" stroke="#000000" stroke-width="1" stroke-linecap="round" stroke-linejoin="round"/>
  <path d="M513.64,1206.00 L513.64,54.00" fill="none" stroke="#000000" stroke-width="1" stroke-linecap="round" stroke-linejoin="round"/>
  <path d="M521.21,1206.00 L521.21,54.00" fill="none" stroke="#000000" stroke-width="1" stroke-linecap="round" stroke-linejoin="round"/>
  <path d="M528.78,1206.00 L528.78,54.00" fill="none" stroke="#000000" stroke-width="1" stroke-linecap="round" stroke-linejoin="round"/>
  <path d="M536.35,1206.00 L536.35,54.00" fill="none" stroke="#000000" stroke-width="1" stroke-linecap="round" stroke-linejoin="round"/>
  <path d="M543.93,1206.00 L543.93,54.00" fill="none" stroke="#000000" stroke-width="1" stroke-linecap="round" stroke-linejoin="round"/>
  <path d="M551.50,1206.00 L551.50,54.00" fill="none" stroke="#000000" stroke-width="1" stroke-linecap="round" stroke-linejoin="round"/>
  <path d="M559.07,1206.00 L559.07,54.00" fill="none" stroke="#000000" stroke-width="1" stroke-linecap="round" stroke-linejoin="round"/>
  <path d="M589.35,54.00 L589.35,1206.00" fill="none" stroke="#000000" stroke-width="1" stroke-linecap="round" stroke-linejoin="round"/>
  <path d="M590.55,1206.00 L590.55,54.00" fill="none" stroke="#000000" stroke-width="1" stroke-linecap="round" stroke-linejoin="round"/>
  <path d="M597.81,54.00 L597.81,1206.00" fill="none" stroke="#000000" stroke-width="1" stroke-linecap="round" stroke-linejoin="round"/>
  <path d="M605.06,54.00 L605.06,1206.00" fill="none" stroke="#000000" stroke-width="1" stroke-linecap="round" stroke-linejoin="round"/>
  <path d="M612.31,54.00 L612.31,1206.00" fill="none" stroke="#000000" stroke-width="1" stroke-linecap="round" stroke-linejoin="round"/>
  <path d="M619.56,54.00 L619.56,1206.00" fill="none" stroke="#000000" stroke-width="1" stroke-linecap="round" stroke-linejoin="round"/>
  <path d="M626.82,54.00 L626.82,1206.00" fill="none" stroke="#000000" stroke-width="1" stroke-linecap="round" stroke-linejoin="round"/>
  <path d="M634.07,54.00 L634.07,1206.00" fill="none" stroke="#000000" stroke-width="1" stroke-linecap="round" stroke-linejoin="round"/>
  <path d="M641.32,54.00 L641.32,1206.00" fill="none" stroke="#000000" stroke-width="1" stroke-linecap="round" stroke-linejoin="round"/>
  <path d="M648.58,54.00 L648.58,1206.00" fill="none" stroke="#000000" stroke-width="1" stroke-linecap="round" stroke-linejoin="round"/>
  <path d="M650.68,1206.00 L650.68,54.00" fill="none" stroke="#000000" stroke-width="1" stroke-linecap="round" stroke-linejoin="round"/>
  <path d="M674.82,1206.00 L674.82,54.00" fill="none" stroke="#000000" stroke-width="1" stroke-linecap="round" stroke-linejoin="round"/>
  <path d="M655.83,1206.00 L655.83,54.00" fill="none" stroke="#000000" stroke-width="1" stroke-linecap="round" stroke-linejoin="round"/>
  <path d="M656.72,54.00 L656.72,1206.00" fill="none" stroke="#000000" stroke-width="1" stroke-linecap="round" stroke-linejoin="round"/>
  <path d="M662.75,54.00 L662.75,1206.00" fill="none" stroke="#000000" stroke-width="1" stroke-linecap="round" stroke-linejoin="round"/>
  <path d="M663.08,1206.00 L663.08,54.00" fill="none" stroke="#000000" stroke-width="1" stroke-linecap="round" stroke-linejoin="round"/>
  <path d="M670.33,54.00 L670.33,1206.00" fill="none" stroke="#000000" stroke-width="1" stroke-linecap="round" stroke-linejoin="round"/>
  <path d="M668.79,1206.00 L668.79,54.00" fill="none" stroke="#000000" stroke-width="1" stroke-linecap="round" stroke-linejoin="round"/>
  <path d="M763.67,54.00 L763.67,1206.00" fill="none" stroke="#000000" stroke-width="1" stroke-linecap="round" stroke-linejoin="round"/>
  <path d="M770.74,54.00 L770.74,1206.00" fill="none" stroke="#000000" stroke-width="1" stroke-linecap="round" stroke-linejoin="round"/>
  <path d="M777.82,54.00 L777.82,1206.00" fill="none" stroke="#000000" stroke-width="1" stroke-linecap="round" stroke-linejoin="round"/>
  <path d="M784.89,54.00 L784.89,1206.00" fill="none" stroke="#000000" stroke-width="1" stroke-linecap="round" stroke-linejoin="round"/>
  <path d="M791.96,54.00 L791.96,1206.00" fill="none" stroke="#000000" stroke-width="1" stroke-linecap="round" stroke-linejoin="round"/>
  <path d="M799.03,54.00 L799.03,1206.00" fill="none" stroke="#000000" stroke-width="1" stroke-linecap="round" stroke-linejoin="round"/>
  <path d="M806.10,54.00 L806.10,1206.00" fill="none" stroke="#000000" stroke-width="1" stroke-linecap="round" stroke-linejoin="round"/>
  <path d="M813.17,54.00 L813.17,1206.00" fill="none" stroke="#000000" stroke-width="1" stroke-linecap="round" stroke-linejoin="round"/>
  <path d="M820.24,54.00 L820.24,1206.00" fill="none" stroke="#000000" stroke-width="1" stroke-linecap="round" stroke-linejoin="round"/>
  <path d="M827.31,54.00 L827.31,1206.00" fill="none" stroke="#000000" stroke-width="1" stroke-linecap="round" stroke-linejoin="round"/>
  <path d="M834.38,54.00 L834.38,1206.00" fill="none" stroke="#000000" stroke-width="1" stroke-linecap="round" stroke-linejoin="round"/>
  <path d="M756.60,1206.00 L756.60,54.00" fill="none" stroke="#000000" stroke-width="1" stroke-linecap="round" stroke-linejoin="round"/>
  <path d="M680.86,54.00 L680.86,1206.00" fill="none" stroke="#000000" stroke-width="1" stroke-linecap="round" stroke-linejoin="round"/>
  <path d="M686.89,54.00 L686.89,1206.00" fill="none" stroke="#000000" stroke-width="1" stroke-linecap="round" stroke-linejoin="round"/>
  <path d="M692.93,54.00 L692.93,1206.00" fill="none" stroke="#000000" stroke-width="1" stroke-linecap="round" stroke-linejoin="round"/>
  <path d="M698.96,54.00 L698.96,1206.00" fill="none" stroke="#000000" stroke-width="1" stroke-linecap="round" stroke-linejoin="round"/>
  <path d="M705.00,54.00 L705.00,1206.00" fill="none" stroke="#000000" stroke-width="1" stroke-linecap="round" stroke-linejoin="round"/>
  <path d="M711.03,54.00 L711.03,1206.00" fill="none" stroke="#000000" stroke-width="1" stroke-linecap="round" stroke-linejoin="round"/>
  <path d="M717.07,54.00 L717.07,1206.00" fill="none" stroke="#000000" stroke-width="1" stroke-linecap="round" stroke-linejoin="round"/>
  <path d="M723.10,54.00 L723.10,1206.00" fill="none" stroke="#000000" stroke-width="1" stroke-linecap="round" stroke-linejoin="round"/>
  <path d="M729.14,54.00 L729.14,1206.00" fill="none" stroke="#000000" stroke-width="1" stroke-linecap="round" stroke-linejoin="round"/>
  <path d="M735.17,54.00 L735.17,1206.00" fill="none" stroke="#000000" stroke-width="1" stroke-linecap="round" stroke-linejoin="round"/>
  <path d="M741.21,54.00 L741.21,1206.00" fill="none" stroke="#000000" stroke-width="1" stroke-linecap="round" stroke-linejoin="round"/>
  <path d="M742.46,1206.00 L742.46,54.00" fill="none" stroke="#000000" stroke-width="1" stroke-linecap="round" stroke-linejoin="round"/>
  <path d="M747.24,1206.00 L747.24,54.00" fill="none" stroke="#000000" stroke-width="1" stroke-linecap="round" stroke-linejoin="round"/>
  <path d="M749.53,54.00 L749.53,1206.00" fill="none" stroke="#000000" stroke-width="1" stroke-linecap="round" stroke-linejoin="round"/>
  <path d="M753.27,1206.00 L753.27,54.00" fill="none" stroke="#000000" stroke-width="1" stroke-linecap="round" stroke-linejoin="round"/>
  <path d="M759.31,54.00 L759.31,1206.00" fill="none" stroke="#000000" stroke-width="1" stroke-linecap="round" stroke-linejoin="round"/>
  <path d="M566.64,1206.00 L566.64,54.00" fill="none" stroke="#000000" stroke-width="1" stroke-linecap="round" stroke-linejoin="round"/>
  <path d="M568.80,54.00 L568.80,1206.00" fill="none" stroke="#000000" stroke-width="1" stroke-linecap="round" stroke-linejoin="round"/>
  <path d="M574.21,54.00 L574.21,1206.00" fill="none" stroke="#000000" stroke-width="1" stroke-linecap="round" stroke-linejoin="round"/>
  <path d="M576.05,1206.00 L576.05,54.00" fill="none" stroke="#000000" stroke-width="1" stroke-linecap="round" stroke-linejoin="round"/>
  <path d="M581.78,54.00 L581.78,1206.00" fill="none" stroke="#000000" stroke-width="1" stroke-linecap="round" stroke-linejoin="round"/>
  <path d="M583.30,1206.00 L583.30,54.00" fill="none" stroke="#000000" stroke-width="1" stroke-linecap="round" stroke-linejoin="round"/>
  <path d="M493.38,1206.00 L493.38,54.00" fill="none" stroke="#000000" stroke-width="1" stroke-linecap="round" stroke-linejoin="round"/>
  <path d="M490.93,54.00 L490.93,1206.00" fill="none" stroke="#000000" stroke-width="1" stroke-linecap="round" stroke-linejoin="round"/>
  <path d="M486.54,1206.00 L486.54,54.00" fill="none" stroke="#000000" stroke-width="1" stroke-linecap="round" stroke-linejoin="round"/>
  <path d="M483.36,54.00 L483.36,1206.00" fill="none" stroke="#000000" stroke-width="1" stroke-linecap="round" stroke-linejoin="round"/>
  <path d="M479.70,54.00 L479.70,1206.00" fill="none" stroke="#000000" stroke-width="1" stroke-linecap="round" stroke-linejoin="round"/>
  <path d="M472.86,1206.00 L472.86,54.00" fill="none" stroke="#000000" stroke-width="1" stroke-linecap="round" stroke-linejoin="round"/>
  <path d="M466.02,1206.00 L466.02,54.00" fill="none" stroke="#000000" stroke-width="1" stroke-linecap="round" stroke-linejoin="round"/>
  <path d="M459.18,1206.00 L459.18,54.00" fill="none" stroke="#000000" stroke-width="1" stroke-linecap="round" stroke-linejoin="round"/>
  <path d="M452.34,1206.00 L452.34,54.00" fill="none" stroke="#000000" stroke-width="1" stroke-linecap="round" stroke-linejoin="round"/>
  <path d="M445.50,1206.00 L445.50,54.00" fill="none" stroke="#000000" stroke-width="1" stroke-linecap="round" stroke-linejoin="round"/>
  <path d="M438.66,1206.00 L438.66,54.00" fill="none" stroke="#000000" stroke-width="1" stroke-linecap="round" stroke-linejoin="round"/>
  <path d="M431.82,1206.00 L431.82,54.00" fill="none" stroke="#000000" stroke-width="1" stroke-linecap="round" stroke-linejoin="round"/>
  <path d="M424.98,1206.00 L424.98,54.00" fill="none" stroke="#000000" stroke-width="1" stroke-linecap="round" stroke-linejoin="round"/>
  <path d="M418.14,1206.00 L418.14,54.00" fill="none" stroke="#000000" stroke-width="1" stroke-linecap="round" stroke-linejoin="round"/>
  <path d="M414.40,1206.00 L414.40,54.00" fill="none" stroke="#000000" stroke-width="1" stroke-linecap="round" stroke-linejoin="round"/>
  <path d="M408.18,54.00 L408.18,1206.00" fill="none" stroke="#000000" stroke-width="1" stroke-linecap="round" stroke-linejoin="round"/>
  <path d="M401.96,54.00 L401.96,1206.00" fill="none" stroke="#000000" stroke-width="1" stroke-linecap="round" stroke-linejoin="round"/>
  <path d="M397.62,1206.00 L397.62,54.00" fill="none" stroke="#000000" stroke-width="1" stroke-linecap="round" stroke-linejoin="round"/>
  <path d="M395.74,54.00 L395.74,1206.00" fill="none" stroke="#000000" stroke-width="1" stroke-linecap="round" stroke-linejoin="round"/>
  <path d="M241.92,272.09 L241.92,320.41" fill="none" stroke="#000000" stroke-width="1" stroke-linecap="round" stroke-linejoin="round"/>
</svg>