<?xml version="1.0" encoding="UTF-8"?>
<svg xmlns="http://www.w3.org/2000/svg" width="297mm" height="420mm" viewBox="0 0 297 420">
  <path d="M165.820,208.057 Q171.660,210.300 173.872,212.468 Q176.084,214.636 177.643,217.758 L179.203,220.879" fill="none" stroke="#6E2430" stroke-width="2.0250000000000004" stroke-linecap="round" stroke-linejoin="round"/>
  <path d="M174.266,226.856 Q173.937,221.857 175.366,219.747 Q176.795,217.637 179.898,216.161 Q183.002,214.685 186.738,214.248 Q190.475,213.811 193.837,214.469 L197.200,215.127" fill="none" stroke="#6E2430" stroke-width="2.0250000000000004" stroke-linecap="round" stroke-linejoin="round"/>
  <path d="M195.710,218.994 Q200.273,213.817 201.258,210.884 Q202.243,207.950 202.149,204.777 L202.055,201.603" fill="none" stroke="#6E2430" stroke-width="2.0250000000000004" stroke-linecap="round" stroke-linejoin="round"/>
  <path d="M211.209,205.386 Q218.547,212.110 220.763,216.449 Q222.978,220.788 223.424,225.651 Q223.870,230.513 222.670,235.386 Q221.470,240.259 218.262,244.557 Q215.054,248.855 209.974,251.687 Q204.894,254.519 198.741,254.959 Q192.588,255.399 186.254,253.770 Q179.921,252.141 173.953,248.547 Q167.985,244.953 163.368,239.175 Q158.750,233.396 158.358,225.675 Q157.966,217.954 162.073,211.663 Q166.180,205.372 172.397,202.336 Q178.615,199.301 184.849,198.785 Q191.083,198.270 196.641,199.287 Q202.199,200.303 206.901,202.594 L211.604,204.885" fill="none" stroke="#6E2430" stroke-width="2.0250000000000004" stroke-linecap="round" stroke-linejoin="round"/>
  <path d="M218.974,214.640 Q214.850,220.105 212.153,221.607 Q209.456,223.109 206.314,223.643 L203.171,224.177" fill="none" stroke="#6E2430" stroke-width="2.0250000000000004" stroke-linecap="round" stroke-linejoin="round"/>
  <path d="M199.928,221.946 Q196.067,219.861 193.337,219.251 Q190.608,218.642 187.595,219.076 Q184.582,219.511 182.409,220.583 Q180.237,221.656 179.544,222.507 Q178.851,223.358 178.965,224.296 Q179.079,225.234 180.662,227.229 Q182.245,229.223 185.422,230.980 Q188.599,232.736 191.835,233.560 Q195.070,234.384 197.251,234.187 Q199.432,233.990 200.547,233.331 Q201.662,232.672 202.259,231.800 Q202.856,230.928 202.928,228.963 Q203.000,226.998 201.319,224.686 L199.637,222.374" fill="none" stroke="#6E2430" stroke-width="2.0250000000000004" stroke-linecap="round" stroke-linejoin="round"/>
  <path d="M200.163,234.652 Q200.883,241.446 202.067,244.264 Q203.251,247.081 205.398,249.424 L207.546,251.767" fill="none" stroke="#6E2430" stroke-width="2.0250000000000004" stroke-linecap="round" stroke-linejoin="round"/>
  <path d="M182.885,231.014 Q176.923,234.467 175.070,236.989 Q173.217,239.511 172.349,242.605 L171.481,245.699" fill="none" stroke="#6E2430" stroke-width="2.0250000000000004" stroke-linecap="round" stroke-linejoin="round"/>
</svg>